
<svg width="652" height="552" viewBox="0 0 652 552" fill="none" xmlns="http://www.w3.org/2000/svg">
<g clip-path="url(#clip0_128_120)">
<path d="M348.617 77.4366C370.241 61.463 400.684 55.3394 424.505 67.8011C397.688 79.4445 375.854 100.198 362.866 126.39C357.894 136.509 353.417 148.282 343.158 152.958C336.775 155.868 329.241 155.307 322.631 152.957C316.02 150.607 310.14 146.615 304.342 142.665L302.603 142.456C312.922 117.631 326.994 93.4102 348.617 77.4366Z" fill="#F0F0F0"/>
<path d="M424.313 68.3317C402.072 69.0285 380.616 76.7156 362.992 90.3009C359.146 93.1582 355.775 96.6038 353.002 100.511C350.424 104.404 348.935 108.917 348.691 113.58C348.376 117.924 348.556 122.403 347.191 126.594C346.46 128.729 345.286 130.685 343.746 132.335C342.206 133.984 340.335 135.29 338.255 136.165C333.13 138.482 327.478 138.819 321.939 138.956C315.789 139.108 309.399 139.169 303.806 142.065C303.128 142.416 302.624 141.344 303.3 140.993C313.031 135.955 324.402 139.242 334.629 136.244C339.401 134.845 343.781 131.999 345.697 127.238C347.372 123.074 347.19 118.455 347.471 114.054C347.643 109.502 348.926 105.06 351.21 101.118C353.775 97.0827 357.008 93.513 360.771 90.562C369.136 83.7833 378.515 78.362 388.564 74.4967C400.009 70.0216 412.134 67.5373 424.417 67.1512C425.177 67.1276 425.068 68.3082 424.313 68.3317Z" fill="white"/>
<path d="M368.409 85.5924C366.531 82.3262 365.876 78.4987 366.559 74.7936C367.243 71.0885 369.221 67.747 372.141 65.3659C372.733 64.8861 373.507 65.7842 372.913 66.2646C370.19 68.4769 368.348 71.5897 367.718 75.0412C367.089 78.4927 367.714 82.0555 369.481 85.0866C369.864 85.7458 368.79 86.2478 368.409 85.5924Z" fill="white"/>
<path d="M348.561 111.357C355.978 113.43 363.905 112.631 370.759 109.12C371.438 108.772 371.943 109.843 371.265 110.191C364.125 113.832 355.875 114.646 348.161 112.472C347.425 112.264 347.829 111.15 348.561 111.357Z" fill="white"/>
<path d="M399.952 71.5915C400.416 73.0067 401.223 74.2846 402.302 75.3106C403.382 76.3366 404.699 77.0785 406.136 77.4696C406.873 77.668 406.468 78.782 405.736 78.5849C404.15 78.1454 402.697 77.3243 401.502 76.1934C400.307 75.0625 399.407 73.6561 398.881 72.0973C398.819 71.9545 398.814 71.7935 398.866 71.647C398.919 71.5005 399.025 71.3795 399.164 71.3086C399.306 71.2424 399.469 71.2349 399.616 71.2879C399.764 71.3408 399.885 71.4499 399.952 71.5915Z" fill="white"/>
<path d="M443.391 156.843C442.927 156.732 442.463 156.621 441.991 156.517C435.746 155.06 429.393 154.113 422.994 153.686C422.5 153.645 421.998 153.611 421.504 153.584C406.077 152.718 390.623 154.723 375.929 159.498C370.083 161.404 364.391 163.751 358.901 166.52C351.32 170.345 343.405 175.095 335.243 176.161C334.393 176.281 333.536 176.349 332.677 176.364L302.483 144.593C302.45 144.487 302.411 144.387 302.378 144.28L301.114 143.066C301.387 142.904 301.674 142.741 301.947 142.578C302.105 142.483 302.27 142.395 302.428 142.3C302.536 142.239 302.644 142.179 302.737 142.117C302.773 142.097 302.809 142.077 302.837 142.063C302.931 142.002 303.024 141.955 303.111 141.9C304.711 140.986 306.321 140.082 307.94 139.187C307.947 139.18 307.947 139.18 307.961 139.18C320.314 132.393 333.343 126.577 346.839 122.924C347.246 122.815 347.659 122.697 348.078 122.602C354.171 120.989 360.386 119.877 366.66 119.277C370.097 118.959 373.547 118.815 376.998 118.846C385.915 118.944 394.761 120.444 403.212 123.29C420.058 128.967 434.901 139.969 442.799 155.64C443.001 156.041 443.196 156.435 443.391 156.843Z" fill="#F0F0F0"/>
<path d="M442.92 157.154C424.742 144.32 402.982 137.54 380.732 137.776C375.941 137.742 371.174 138.464 366.608 139.914C362.205 141.47 358.3 144.177 355.297 147.753C352.431 151.031 349.878 154.717 346.264 157.241C344.395 158.506 342.28 159.361 340.058 159.751C337.835 160.141 335.555 160.056 333.367 159.503C327.88 158.267 323.164 155.133 318.659 151.908C313.657 148.327 308.519 144.528 302.31 143.473C301.557 143.345 301.8 142.185 302.551 142.313C313.354 144.149 320.454 153.619 330.425 157.383C335.077 159.139 340.287 159.503 344.684 156.855C348.528 154.54 351.164 150.742 354.038 147.397C356.916 143.866 360.615 141.093 364.812 139.32C369.289 137.642 374.02 136.738 378.801 136.648C389.562 136.272 400.314 137.59 410.665 140.554C422.497 143.871 433.674 149.188 443.714 156.275C444.335 156.713 443.537 157.59 442.92 157.154Z" fill="white"/>
<path d="M387.892 137.279C388.359 133.54 390.14 130.089 392.916 127.542C395.693 124.996 399.284 123.519 403.049 123.375C403.811 123.349 403.888 124.532 403.125 124.558C399.619 124.685 396.273 126.061 393.693 128.438C391.112 130.815 389.466 134.036 389.052 137.52C388.961 138.277 387.801 138.031 387.892 137.279Z" fill="white"/>
<path d="M356.532 145.9C361.206 152.021 368.016 156.155 375.603 157.479C376.355 157.609 376.113 158.769 375.362 158.639C367.469 157.247 360.391 152.93 355.541 146.549C355.079 145.941 356.072 145.294 356.532 145.9Z" fill="white"/>
<path d="M421.507 145.091C421.025 146.5 420.9 148.006 421.144 149.475C421.388 150.944 421.993 152.329 422.905 153.507C423.374 154.109 422.38 154.755 421.914 154.156C420.913 152.851 420.246 151.32 419.973 149.698C419.7 148.075 419.828 146.411 420.347 144.849C420.383 144.698 420.476 144.566 420.606 144.481C420.736 144.396 420.894 144.363 421.047 144.39C421.201 144.423 421.335 144.515 421.421 144.646C421.507 144.777 421.538 144.937 421.507 145.091Z" fill="white"/>
<path d="M336.072 101.201V105.701H338.412V142.329H336.072V146.829V388.762C336.072 397.408 332.637 405.7 326.523 411.813C320.41 417.927 312.118 421.361 303.472 421.361H167.666C159.02 421.361 150.728 417.927 144.614 411.813C138.501 405.7 135.066 397.408 135.066 388.762V37.0997C135.066 32.8187 135.909 28.5795 137.547 24.6243C139.186 20.6691 141.587 17.0754 144.614 14.0482C147.641 11.021 151.235 8.61977 155.19 6.98148C159.146 5.3432 163.385 4.49999 167.666 4.5H303.472C307.753 4.5 311.992 5.34323 315.947 6.98152C319.903 8.61983 323.496 11.0211 326.524 14.0483C329.551 17.0754 331.952 20.6692 333.59 24.6244C335.229 28.5796 336.072 32.8187 336.072 37.0998V101.201Z" stroke="#3F3D56" stroke-width="9"/>
<path d="M239.361 303.408C229.312 303.417 219.36 301.445 210.075 297.604C200.789 293.762 192.352 288.128 185.246 281.022C178.141 273.917 172.506 265.48 168.665 256.194C164.824 246.908 162.852 236.956 162.861 226.908C162.847 212.797 166.741 198.959 174.112 186.926C181.483 174.894 192.042 165.139 204.619 158.742C213.736 154.103 223.689 151.337 233.892 150.604C244.094 149.872 254.34 151.189 264.026 154.478C281.179 160.324 295.701 172.068 305.004 187.62C314.308 203.171 317.789 221.52 314.828 239.399C311.867 257.278 302.656 273.525 288.836 285.247C275.016 296.969 257.483 303.404 239.361 303.408ZM239.361 153.408C227.755 153.374 216.31 156.119 205.983 161.414C196.956 166.013 188.977 172.428 182.548 180.258C176.118 188.087 171.376 197.161 168.62 206.91C165.864 216.659 165.153 226.872 166.532 236.909C167.911 246.946 171.349 256.59 176.632 265.234C181.915 273.879 188.929 281.338 197.231 287.143C205.534 292.949 214.947 296.975 224.88 298.969C234.813 300.964 245.051 300.883 254.951 298.733C264.852 296.582 274.2 292.408 282.411 286.473C286.38 283.609 290.051 280.352 293.367 276.751C303.066 266.257 309.495 253.163 311.866 239.071C314.236 224.979 312.446 210.502 306.715 197.412C300.983 184.322 291.559 173.187 279.596 165.372C267.633 157.556 253.651 153.398 239.361 153.408Z" fill="#F0F0F0"/>
<path d="M73.5966 159.017C75.6965 159.28 77.713 160.001 79.5043 161.127C81.2955 162.254 82.8179 163.76 83.9642 165.539C85.1104 167.318 85.8527 169.327 86.1387 171.424C86.4247 173.521 86.2475 175.655 85.6195 177.676L111.037 198.847L101.938 217.431L66.4639 187.029C63.1388 185.749 60.3987 183.293 58.7629 180.128C57.127 176.963 56.7091 173.307 57.5883 169.855C58.4675 166.402 60.5827 163.391 63.5332 161.394C66.4836 159.396 70.0642 158.551 73.5966 159.017Z" fill="#FFB6B6"/>
<path d="M310.981 247.308C310.471 241.828 308.364 231.978 306.576 228.335C301.079 213.948 265.561 202.122 260.791 200.598L259.581 187.148L210.231 181.838L203.971 199.038L186.271 205.678C185.069 206.126 183.982 206.835 183.086 207.753C182.19 208.671 181.509 209.776 181.091 210.988L165.211 215.578L149.541 220.108L95.101 181.748L92.5307 183.428L75.351 194.638L72.7006 196.368L143.151 259.928L169.321 253.788L189.001 249.158L190.681 255.978L186.331 279.938C198.933 292.545 215.615 300.249 233.384 301.67C251.153 303.09 268.846 298.133 283.291 287.688L294.471 277.768C302.263 269.343 308.014 259.239 311.281 248.238L310.981 247.308Z" fill="#E4E4E4"/>
<path d="M250.412 170.838C269.041 164.67 279.143 144.568 272.975 125.938C266.807 107.309 246.705 97.2067 228.075 103.375C209.446 109.543 199.344 129.645 205.512 148.275C211.68 166.904 231.782 177.006 250.412 170.838Z" fill="#FFB6B6"/>
<path d="M211.177 96.5989C214.631 91.6657 219.815 88.2127 225.699 86.9261C231.516 85.7297 237.57 86.8401 242.584 90.0232C248.036 87.827 253.914 86.3699 259.689 87.1107C265.465 87.8514 271.125 91.0773 273.797 96.3919C274.359 97.7687 275.041 99.0933 275.836 100.351C278.19 103.492 282.565 103.899 286.429 104.05C284.476 105.19 282.522 106.329 280.568 107.468C282.515 108.376 284.462 109.283 286.41 110.19C283.76 111.202 281.109 112.214 278.459 113.226C284.628 118.648 286.12 128.298 283.784 136.388C281.573 144.048 276.503 150.497 270.841 156.017C269.737 151.898 270.952 147.432 271.761 143.167C272.615 138.661 272.752 133.392 269.597 130.211C267.469 128.065 264.347 127.417 261.403 126.896C246.554 124.27 231.568 122.49 216.517 121.566C214.502 121.288 212.45 121.497 210.534 122.177C206.871 123.805 205.399 128.275 204.338 132.238C203.829 125.281 204.236 118.288 205.546 111.437C206.55 106.193 208.132 100.945 211.177 96.5989Z" fill="#2F2E41"/>
<path d="M257.361 339.45H215.361C213.902 339.45 212.503 338.871 211.472 337.839C210.44 336.808 209.861 335.409 209.861 333.95C209.861 332.492 210.44 331.093 211.472 330.061C212.503 329.03 213.902 328.45 215.361 328.45H257.361C258.819 328.45 260.218 329.03 261.25 330.061C262.281 331.093 262.861 332.492 262.861 333.95C262.861 335.409 262.281 336.808 261.25 337.839C260.218 338.871 258.819 339.45 257.361 339.45Z" fill="#13B156"/>
<path d="M119.542 45.125H4.01782C2.95326 45.1233 1.93286 44.6992 1.18069 43.9459C0.428531 43.1925 0.006073 42.1715 0.006073 41.1069C0.006073 40.0424 0.428531 39.0213 1.18069 38.268C1.93286 37.5146 2.95326 37.0905 4.01782 37.0889H119.542C120.608 37.0889 121.63 37.5122 122.384 38.2657C123.137 39.0193 123.561 40.0413 123.561 41.1069C123.561 42.1726 123.137 43.1946 122.384 43.9481C121.63 44.7017 120.608 45.125 119.542 45.125Z" fill="#13B156"/>
<path d="M186.243 70.7881H4.01782C2.95223 70.7881 1.93028 70.3648 1.17679 69.6113C0.4233 68.8578 0 67.8359 0 66.7703C0 65.7047 0.4233 64.6827 1.17679 63.9292C1.93028 63.1757 2.95223 62.7524 4.01782 62.7524H186.243C187.308 62.7524 188.33 63.1757 189.084 63.9292C189.837 64.6827 190.26 65.7047 190.26 66.7703C190.26 67.8359 189.837 68.8578 189.084 69.6113C188.33 70.3648 187.308 70.7881 186.243 70.7881Z" fill="#13B156"/>
<path d="M151.225 94.9653H4.01785C2.95226 94.9653 1.93031 94.542 1.17682 93.7885C0.423331 93.0351 3.05176e-05 92.0131 3.05176e-05 90.9475C3.05176e-05 89.8819 0.423331 88.86 1.17682 88.1065C1.93031 87.353 2.95226 86.9297 4.01785 86.9297H151.225C152.29 86.9297 153.312 87.353 154.066 88.1065C154.819 88.86 155.243 89.8819 155.243 90.9475C155.243 92.0131 154.819 93.0351 154.066 93.7885C153.312 94.542 152.29 94.9653 151.225 94.9653Z" fill="#CACACA"/>
<path d="M87.0269 119.054H4.01785C2.95226 119.054 1.93031 118.63 1.17682 117.877C0.423331 117.123 3.05176e-05 116.101 3.05176e-05 115.036C3.05176e-05 113.97 0.423331 112.948 1.17682 112.195C1.93031 111.441 2.95226 111.018 4.01785 111.018H87.0269C88.0924 111.018 89.1144 111.441 89.8679 112.195C90.6213 112.948 91.0446 113.97 91.0446 115.036C91.0446 116.101 90.6213 117.123 89.8679 117.877C89.1144 118.63 88.0924 119.054 87.0269 119.054Z" fill="#CACACA"/>
<path d="M132.883 143.14H4.01779C2.9533 143.138 1.933 142.714 1.18088 141.961C0.428759 141.208 0.00631714 140.187 0.00631714 139.122C0.00631714 138.058 0.428759 137.037 1.18088 136.284C1.933 135.53 2.9533 135.106 4.01779 135.104H132.883C133.947 135.106 134.968 135.53 135.72 136.284C136.472 137.037 136.894 138.058 136.894 139.122C136.894 140.187 136.472 141.208 135.72 141.961C134.968 142.714 133.947 143.138 132.883 143.14Z" fill="#CACACA"/>
<path d="M496.06 536.227L485.706 536.226L480.78 496.288L496.062 496.289L496.06 536.227Z" fill="#9F616A"/>
<path d="M500.134 550.556L460.603 550.555V550.055C460.603 545.974 462.224 542.061 465.11 539.175C467.995 536.29 471.909 534.669 475.989 534.669H475.99L483.211 529.19L496.684 534.669L500.134 534.669L500.134 550.556Z" fill="#2F2E41"/>
<path d="M490.027 348.526L485.46 292.847L481.873 271.949L501.959 267.513L508.624 296.124L502.817 350.072C503.988 351.507 504.704 353.26 504.871 355.105C505.039 356.95 504.651 358.803 503.757 360.426C502.864 362.049 501.505 363.367 499.857 364.212C498.208 365.058 496.344 365.39 494.505 365.168C492.666 364.946 490.935 364.179 489.535 362.966C488.135 361.752 487.129 360.148 486.648 358.359C486.167 356.57 486.231 354.678 486.833 352.926C487.435 351.174 488.548 349.642 490.027 348.526Z" fill="#9F616A"/>
<path d="M441.06 536.227L430.706 536.226L425.78 496.288L441.062 496.289L441.06 536.227Z" fill="#9F616A"/>
<path d="M424.489 361.149L419.899 369.089C419.899 369.089 414.856 370.467 416.504 386.908C418.152 403.349 418.224 500.757 426.202 512.744L427.646 523.036L442.713 524.476L443.093 515.343L461.058 388.459C461.058 388.459 471.639 513.019 480.392 516.067L483.553 526.444L497.361 526.451L496.546 514.221L497.436 359.862L424.489 361.149Z" fill="#2F2E41"/>
<path d="M419.443 368.484L419.125 368.402C428.6 332.965 425.867 287.079 419.177 237.805L419.177 237.601L443.361 215.45H464.361L485.179 228.885C498.637 235.614 501.696 249.864 501.725 250.008L501.746 250.109L493.5 278.893L499.712 362.136L499.719 362.233L499.684 362.323C497.673 367.42 492.286 366.695 486.047 365.854C479.82 365.014 456.871 372.692 449.835 372.692C436.084 372.692 420.426 368.735 419.443 368.484Z" fill="#E4E4E4"/>
<path d="M480.819 240.104L489.841 236.18L501.727 250.753L511.361 297.45L478.361 292.45L480.819 240.104Z" fill="#E4E4E4"/>
<path d="M342.06 326.215L383.301 288.53L397.634 272.903L413.434 286.074L394.885 308.855L348.665 337.276C348.246 339.081 347.298 340.719 345.941 341.981C344.585 343.243 342.882 344.07 341.051 344.356C339.221 344.643 337.347 344.376 335.669 343.589C333.992 342.802 332.588 341.532 331.638 339.941C330.689 338.35 330.236 336.512 330.339 334.662C330.442 332.812 331.095 331.036 332.216 329.56C333.336 328.085 334.872 326.978 336.626 326.382C338.38 325.786 340.273 325.728 342.06 326.215Z" fill="#9F616A"/>
<path d="M382.403 288.94L393.825 274.107C393.92 273.894 403.397 252.717 411.611 243.516C420.037 234.077 426.671 238.904 426.737 238.956L426.902 239.08L427.361 273.937L395.733 311.728L382.403 288.94Z" fill="#E4E4E4"/>
<path d="M470.78 194.586C472.483 184.092 465.356 174.204 454.862 172.501C444.367 170.798 434.479 177.925 432.776 188.419C431.073 198.914 438.2 208.802 448.694 210.505C459.189 212.208 469.077 205.081 470.78 194.586Z" fill="#9F616A"/>
<path d="M434.178 188.645C434.178 188.645 434.024 181.877 433.169 178.883C432.313 175.888 430.602 173.321 431.458 173.321C432.313 173.321 432.741 171.182 432.741 171.182C432.741 171.182 433.597 170.754 434.024 171.182C434.452 171.61 434.88 168.188 434.88 168.188C434.88 168.188 435.308 166.904 435.735 167.76C436.163 168.615 436.163 168.188 436.591 166.904C437.019 165.621 439.158 164.765 439.158 164.765C439.158 164.765 447.286 165.193 448.569 163.482C449.853 161.771 464.398 163.054 467.392 165.193C470.387 167.332 483.649 175.032 481.51 181.449C479.371 187.866 473.213 202.641 471.67 204.122C469.23 206.465 467.541 207.309 455.996 209.607C453.737 210.056 442.204 202.681 442.204 201.397C442.204 200.114 443.594 196.044 441.359 195.485C437.981 194.641 437.601 198.912 436.745 197.628C435.89 196.345 434.178 188.645 434.178 188.645Z" fill="#2F2E41"/>
<path d="M445.134 550.556L405.603 550.555V550.055C405.603 545.974 407.224 542.061 410.11 539.175C412.995 536.29 416.909 534.669 420.989 534.669H420.99L428.211 529.19L441.684 534.669L445.134 534.669L445.134 550.556Z" fill="#2F2E41"/>
<path d="M650.622 551.311H3.328C3.01221 551.311 2.70938 551.185 2.48608 550.962C2.26279 550.738 2.13733 550.436 2.13733 550.12C2.13733 549.804 2.26279 549.501 2.48608 549.278C2.70938 549.055 3.01221 548.929 3.328 548.929H650.622C650.938 548.929 651.241 549.055 651.464 549.278C651.687 549.501 651.813 549.804 651.813 550.12C651.813 550.436 651.687 550.738 651.464 550.962C651.241 551.185 650.938 551.311 650.622 551.311Z" fill="#CACACA"/>
</g>
<defs>
<clipPath id="clip0_128_120">
<rect width="651.813" height="551.31" fill="white"/>
</clipPath>
</defs>
</svg>
